<svg width="30" height="30" viewBox="0 0 30 30" fill="none" xmlns="http://www.w3.org/2000/svg">
<path d="M11.25 27.5H18.75C25 27.5 27.5 25 27.5 18.75V11.25C27.5 5 25 2.5 18.75 2.5H11.25C5 2.5 2.5 5 2.5 11.25V18.75C2.5 25 5 27.5 11.25 27.5Z" fill="#5030E5" fill-opacity="0.2"/>
<path d="M16.137 9.7997L9.64949 16.2872C9.39949 16.5372 9.162 17.0247 9.112 17.3747L8.76201 19.8497C8.63701 20.7497 9.262 21.3747 10.162 21.2497L12.637 20.8997C12.987 20.8497 13.4745 20.6122 13.7245 20.3622L20.212 13.8747C21.3245 12.7622 21.862 11.4622 20.212 9.8122C18.562 8.1497 17.262 8.6747 16.137 9.7997Z" stroke="#5030E5" stroke-width="1.5" stroke-miterlimit="10" stroke-linecap="round" stroke-linejoin="round"/>
<path d="M15.2119 10.7246C15.7619 12.6871 17.2994 14.2371 19.2744 14.7871" stroke="#5030E5" stroke-width="1.5" stroke-miterlimit="10" stroke-linecap="round" stroke-linejoin="round"/>
</svg>
