<svg width="16" height="16" viewBox="0 0 16 16" fill="none" xmlns="http://www.w3.org/2000/svg">
<path d="M11 3.68262C13.3828 3.68271 15.3164 5.61721 15.3164 8C15.3162 10.3826 13.3827 12.3163 11 12.3164H9.99316C9.63699 12.3164 9.34277 12.0222 9.34277 11.666C9.34295 11.31 9.6371 11.0166 9.99316 11.0166H11C12.6636 11.0165 14.0164 9.66362 14.0166 8C14.0166 6.33623 12.6637 4.98349 11 4.9834H10C9.64382 4.9834 9.34961 4.68918 9.34961 4.33301C9.34961 3.97814 9.63586 3.68262 10 3.68262H11Z" fill="#5030E5" stroke="#5030E5" stroke-width="0.3"/>
<path d="M6 3.68262C6.35603 3.6828 6.64941 3.97694 6.64941 4.33301C6.64941 4.68908 6.35603 4.98322 6 4.9834H5C3.33618 4.9834 1.9834 6.33618 1.9834 8C1.98357 9.66368 3.33628 11.0166 5 11.0166H6C6.35592 11.0168 6.64923 11.3101 6.64941 11.666C6.64941 12.0221 6.35603 12.3162 6 12.3164H5C2.61727 12.3164 0.682793 10.3827 0.682617 8C0.682617 5.61716 2.61716 3.68262 5 3.68262H6Z" fill="#5030E5" stroke="#5030E5" stroke-width="0.3"/>
<path d="M10.666 7.34961C11.0222 7.34961 11.3164 7.64382 11.3164 8C11.3164 8.35618 11.0222 8.65039 10.666 8.65039H5.33301C4.97683 8.65039 4.68262 8.35618 4.68262 8C4.68262 7.64382 4.97683 7.34961 5.33301 7.34961H10.666Z" fill="#5030E5" stroke="#5030E5" stroke-width="0.3"/>
</svg>
