<svg width="21" height="21" viewBox="0 0 21 21" fill="none" xmlns="http://www.w3.org/2000/svg">
<path d="M15.1953 8C16.576 8 17.6953 6.88071 17.6953 5.5C17.6953 4.11929 16.576 3 15.1953 3C13.8146 3 12.6953 4.11929 12.6953 5.5C12.6953 6.88071 13.8146 8 15.1953 8Z" stroke="#787486" stroke-width="1.5" stroke-miterlimit="10" stroke-linecap="round" stroke-linejoin="round"/>
<path d="M5.50001 8C6.88072 8 8 6.88071 8 5.5C8 4.11929 6.88072 3 5.50001 3C4.11929 3 3 4.11929 3 5.5C3 6.88071 4.11929 8 5.50001 8Z" stroke="#787486" stroke-width="1.5" stroke-miterlimit="10" stroke-linecap="round" stroke-linejoin="round"/>
<path d="M15.1953 18C16.576 18 17.6953 16.8807 17.6953 15.5C17.6953 14.1193 16.576 13 15.1953 13C13.8146 13 12.6953 14.1193 12.6953 15.5C12.6953 16.8807 13.8146 18 15.1953 18Z" stroke="#787486" stroke-width="1.5" stroke-miterlimit="10" stroke-linecap="round" stroke-linejoin="round"/>
<path d="M5.50001 18C6.88072 18 8 16.8807 8 15.5C8 14.1193 6.88072 13 5.50001 13C4.11929 13 3 14.1193 3 15.5C3 16.8807 4.11929 18 5.50001 18Z" stroke="#787486" stroke-width="1.5" stroke-miterlimit="10" stroke-linecap="round" stroke-linejoin="round"/>
</svg>
